<?xml version="1.0" encoding="utf-8"?>
<!-- Generator: Adobe Illustrator 22.0.1, SVG Export Plug-In . SVG Version: 6.00 Build 0)  -->
<svg version="1.1" id="Layer_1" xmlns="http://www.w3.org/2000/svg" xmlns:xlink="http://www.w3.org/1999/xlink" x="0px" y="0px"
	 viewBox="0 0 855.7 155.2" style="enable-background:new 0 0 855.7 155.2;" xml:space="preserve">
<style type="text/css">
	.st0{fill:#3EAE48;}
	.st1{fill:#85C3E8;}
	.st2{fill:#FFFFFF;}
</style>
<g>
	<path class="st0" d="M184.7,74.4c-0.2-1.7-0.5-3.5-0.9-5.1c-26.3,3.2-52.6-1.2-97.7-16.1c-27-9-43.7-11.8-61.1-7.7
		c-11.7,9.4-18,20.6-18,32.3c0,13.8,8.8,27,24.8,37.2c17,10.8,39.8,16.7,64.1,16.7c17.5,0,34-3.1,48.4-8.8
		C-27.6,94.3,88,72.2,184.7,74.4z"/>
	<path class="st1" d="M184.9,77.7c0-1.1-0.1-2.3-0.2-3.4c-96.6-2.1-212.3,20.1-40.4,48.5c5.7-2.3,10.9-4.9,15.7-7.9
		C176,104.7,184.9,91.5,184.9,77.7z"/>
	<path class="st2" d="M191.6,74.5c-0.2-2.1-0.5-4.2-1-6.2c-1.2-4.8-3.2-9.4-6.1-13.8c-0.3-0.5-0.6-1-1-1.5
		c-3.1-4.4-6.9-8.6-11.5-12.3c-0.6-0.4-1-0.9-1.6-1.3c-0.6-0.5-1.2-0.9-1.7-1.3c-0.6-0.5-1.3-0.9-1.9-1.3c-0.7-0.5-1.4-0.9-2.1-1.4
		c-0.7-0.5-1.3-0.9-2-1.3c-0.8-0.5-1.5-0.9-2.3-1.4c-1.9-1.1-3.9-2.1-5.9-3.1c-1.4-0.7-2.9-1.4-4.4-2c-0.9-0.4-1.7-0.7-2.5-1
		c-14.9-6.1-32.6-9.6-51.7-9.6c-19.9,0-38.3,3.9-53.6,10.4c-1.9,0.8-3.8,1.7-5.6,2.6c-1.8,0.9-3.5,1.8-5.3,2.8
		c-1.1,0.6-2.3,1.3-3.3,2C27,35.4,26,36.1,25,36.8c-1,0.7-2,1.5-3,2.2c-0.9,0.8-1.9,1.5-2.8,2.3c-1.4,1.2-2.7,2.4-3.9,3.6
		c-0.9,0.8-1.7,1.7-2.4,2.5s-1.5,1.7-2.2,2.6c-0.2,0.2-0.2,0.3-0.3,0.5c-0.2,0.3-0.5,0.6-0.7,0.9c-1,1.3-2,2.7-2.8,4.1
		c-0.7,0.9-1.3,1.9-1.7,2.8C3.8,60.6,2.8,63,2,65.5c-0.3,1-0.6,2-0.9,3c-0.2,1-0.5,2-0.6,3.1c-0.3,2-0.5,4.1-0.5,6.2
		c0,33.6,42.9,60.9,95.8,60.9c19,0,36.8-3.5,51.7-9.6c1.3-0.6,2.6-1.1,3.9-1.7c0.6-0.3,1.3-0.6,1.9-0.9c1.1-0.6,2.2-1.1,3.3-1.7
		c21.5-11.2,35.2-28.1,35.2-47.1C191.8,76.6,191.7,75.6,191.6,74.5z M159.9,114.9c-4.8,3.1-10.1,5.7-15.7,7.9
		c-14.3,5.7-30.9,8.8-48.4,8.8c-24.3,0-47.1-6-64.1-16.7c-16-10.2-24.8-23.4-24.8-37.2c0-11.7,6.3-23,18-32.3
		c17.4-4.2,34-1.3,61.1,7.7c45.1,14.9,71.3,19.3,97.7,16.1c0.5,1.7,0.8,3.4,0.9,5.1c0.1,1.1,0.2,2.3,0.2,3.4
		C184.9,91.5,176,104.7,159.9,114.9z"/>
	<g>
		<path class="st2" d="M201.1,41.9c0-4,0.6-7.5,2-10.7c1.3-3.1,3.1-5.8,5.4-7.9c2.4-2.2,5.1-3.9,8.4-5c3.2-1.1,6.8-1.7,10.7-1.7
			c3.9,0,7.5,0.6,10.8,1.7c3.2,1.1,6.1,2.8,8.4,5s4.2,4.8,5.4,7.9s2,6.7,2,10.7s-0.6,7.5-2,10.7s-3.1,5.8-5.4,7.9
			c-2.4,2.2-5.1,3.8-8.4,4.9c-3.2,1.1-6.8,1.6-10.8,1.6c-3.9,0-7.5-0.6-10.7-1.6c-3.2-1.1-6.1-2.7-8.4-4.9c-2.4-2.2-4.2-4.8-5.4-7.9
			C201.7,49.5,201.1,45.9,201.1,41.9z M247.1,41.9c0-3.9-0.5-7.3-1.5-10.1c-1-2.8-2.4-5.2-4.2-7.1c-1.8-1.9-3.9-3.2-6.2-4.2
			c-2.4-0.9-5-1.3-7.8-1.3c-2.8,0-5.3,0.5-7.7,1.3c-2.4,0.9-4.5,2.3-6.2,4.2c-1.8,1.9-3.1,4.2-4.2,7.1s-1.5,6.2-1.5,10.1
			s0.5,7.3,1.5,10.1c1,2.8,2.4,5.2,4.2,7.1s3.9,3.2,6.2,4.2c2.4,0.9,5,1.3,7.7,1.3s5.3-0.5,7.8-1.3c2.4-0.9,4.5-2.3,6.2-4.2
			c1.8-1.9,3.1-4.2,4.2-7.1C246.7,49.2,247.1,45.8,247.1,41.9z"/>
		<path class="st2" d="M276.7,36.8c2.2-3.2,4.2-6.4,6.1-9.4c1.9-3.1,3.8-6.4,5.7-10c1,0.2,1.9,0.3,2.6,0.3c0.7,0,1.6-0.1,2.6-0.3
			c-2.7,3.7-5.3,7.4-7.9,11s-5.1,7.3-7.5,11.1c2.7,4.6,5.4,9,8.1,13.4c2.8,4.4,5.5,8.7,8.3,13.1c-0.6-0.1-1.3-0.2-2-0.2s-1.3,0-2,0
			c-0.6,0-1.3,0-2,0c-0.6,0-1.3,0.1-2,0.2c-1.9-3.5-3.8-6.9-5.7-10.5c-1.9-3.5-4-7.2-6.4-10.7c-2.4,3.6-4.6,7.2-6.8,10.7
			c-2,3.5-4.1,7.1-6.1,10.5c-0.5-0.1-0.9-0.2-1.4-0.2s-0.9,0-1.3,0c-0.4,0-0.8,0-1.3,0c-0.5,0-0.9,0.1-1.4,0.2
			c2.8-3.9,5.6-7.9,8.3-11.9c2.7-4,5.3-8.1,8.1-12.3c-2.4-4.2-5-8.3-7.4-12.3c-2.5-4-5-8.1-7.6-12.3c0.6,0.1,1.3,0.2,1.9,0.2
			c0.6,0.1,1.3,0.1,1.9,0.1s1.3,0,1.9-0.1c0.6-0.1,1.3-0.2,1.9-0.2c1.6,3.1,3.2,6.3,5,9.4C272.5,29.9,274.6,33.3,276.7,36.8z"/>
		<path class="st2" d="M303.8,26.6c-0.2-3-0.2-6.1-0.4-9.2c2.1,0.1,4.2,0.2,6.4,0.2c2.1,0.1,4.2,0.1,6.4,0.1c2.1,0,4.2,0,6.4-0.1
			s4.6-0.2,7.1-0.2c-0.2,0.8-0.2,1.5-0.2,2.2c0,0.7,0.1,1.4,0.2,2.1c-1.3-0.2-2.8-0.2-4.6-0.4c-1.8-0.1-3.6-0.2-5.5-0.3
			c-1.9-0.1-3.7-0.2-5.3-0.2c-1.7-0.1-3.1-0.1-4.2-0.1c-0.1,1.7-0.1,3.2-0.1,4.7c0,1.5,0,3,0,4.6c0,1.7,0,3.1,0,4.6
			c0,1.4,0,2.8,0,4.3c3.1,0,6.2-0.1,9.2-0.2c3.1-0.1,6.1-0.3,9-0.6c-0.2,0.7-0.3,1.4-0.3,2.1c0,0.7,0.1,1.4,0.3,2.1
			c-1.2-0.2-2.5-0.2-4-0.3c-1.5-0.1-3.1-0.2-4.6-0.2c-1.6-0.1-3.2-0.1-4.9-0.1s-3.2,0-4.7,0V48c0,3.1,0.1,6.2,0.2,9.2
			c0.1,3,0.2,6,0.4,8.9c-1.1-0.1-2.3-0.2-3.5-0.2c-1.3,0-2.4,0.1-3.5,0.2c0.2-2.9,0.2-5.9,0.4-8.9c0.1-3,0.2-6.1,0.2-9.2V35.8
			C304.1,32.7,304,29.6,303.8,26.6z"/>
		<path class="st2" d="M335.2,41.9c0-4,0.6-7.5,2-10.7c1.3-3.1,3.1-5.8,5.4-7.9c2.4-2.2,5.1-3.9,8.4-5c3.2-1.2,6.8-1.7,10.6-1.7
			c3.9,0,7.5,0.6,10.8,1.7c3.2,1.1,6.1,2.8,8.4,5c2.4,2.2,4.2,4.8,5.4,7.9s2,6.7,2,10.7s-0.6,7.5-2,10.7c-1.3,3.1-3.1,5.8-5.4,7.9
			c-2.4,2.2-5.1,3.8-8.4,4.9c-3.2,1.1-6.8,1.6-10.8,1.6c-3.9,0-7.5-0.6-10.7-1.6c-3.2-1.1-6.1-2.7-8.4-4.9c-2.4-2.2-4.2-4.8-5.4-7.9
			C335.8,49.5,335.2,45.9,335.2,41.9z M381.3,41.9c0-3.9-0.5-7.3-1.5-10.1s-2.4-5.2-4.2-7.1c-1.8-1.9-3.9-3.2-6.2-4.2
			c-2.4-0.9-5-1.3-7.8-1.3c-2.8,0-5.3,0.5-7.7,1.3c-2.4,0.9-4.5,2.3-6.2,4.2c-1.7,1.9-3.1,4.2-4.2,7.1S342,38,342,41.9
			s0.5,7.3,1.5,10.1c1,2.8,2.4,5.2,4.2,7.1s3.9,3.2,6.2,4.2c2.4,0.9,5,1.3,7.7,1.3s5.3-0.5,7.8-1.3c2.4-0.9,4.5-2.3,6.2-4.2
			c1.7-1.9,3.1-4.2,4.2-7.1C380.7,49.2,381.3,45.8,381.3,41.9z"/>
		<path class="st2" d="M397.8,35.8c0-3.1-0.1-6.1-0.2-9.2c-0.2-3-0.2-6.1-0.4-9.2c1.3,0.1,2.8,0.2,4,0.2c1.3,0.1,2.7,0.1,4,0.1
			c1.3,0,2.8-0.1,4-0.2c1.3-0.1,2.7-0.2,4-0.2c2,0,3.9,0.2,5.7,0.6s3.4,1,4.7,1.9c1.3,0.9,2.4,2,3.2,3.5s1.2,3.2,1.2,5.3
			c0,2.3-0.5,4.2-1.5,5.8c-1,1.7-2.3,3-3.7,4c-1.5,1.1-3.1,1.9-4.7,2.5c-1.7,0.6-3.2,0.9-4.6,1.2c0.6,0.7,1.3,1.7,2.4,3
			c1,1.3,2.1,2.7,3.3,4.2c1.3,1.6,2.5,3.1,3.9,4.8s2.6,3.3,3.9,4.8c1.3,1.6,2.4,2.9,3.5,4.2c1.1,1.3,2,2.3,2.6,2.9
			c-0.7-0.1-1.4-0.2-2.1-0.2s-1.4,0-2.1,0c-0.6,0-1.3,0-2,0c-0.7,0-1.4,0.1-2,0.2c-0.7-1-1.8-2.5-3.2-4.5c-1.4-2-3.1-4.1-4.8-6.4
			c-1.7-2.3-3.5-4.5-5.3-6.8c-1.8-2.2-3.5-4.2-5-5.7h-2.7V48c0,3.1,0.1,6.2,0.2,9.2c0.1,3,0.2,6,0.4,8.9c-1.1-0.1-2.3-0.2-3.5-0.2
			c-1.2,0-2.4,0.1-3.5,0.2c0.2-2.9,0.2-5.9,0.4-8.9c0.1-3,0.2-6.1,0.2-9.2L397.8,35.8L397.8,35.8z M403.6,39.8
			c0.6,0.2,1.4,0.2,2.1,0.3c0.8,0.1,1.7,0.1,2.6,0.1c1.5,0,3-0.2,4.6-0.5c1.6-0.3,3.1-0.9,4.3-1.7c1.3-0.8,2.4-2,3.3-3.3
			c0.9-1.4,1.3-3.1,1.3-5.3c0-1.8-0.3-3.4-1-4.6c-0.7-1.2-1.6-2.1-2.7-2.8c-1.1-0.7-2.3-1.2-3.5-1.4c-1.3-0.2-2.5-0.4-3.8-0.4
			c-1.7,0-3,0-4.1,0.1c-1.1,0.1-2,0.2-2.8,0.2c-0.1,2.6-0.2,5.2-0.3,7.7c-0.1,2.5-0.2,5.1-0.2,7.6L403.6,39.8L403.6,39.8z"/>
		<path class="st2" d="M440.8,35.8c0-3.1-0.1-6.1-0.2-9.2c-0.2-3-0.2-6.1-0.4-9.2c1.8,0.1,3.5,0.2,5.3,0.2s3.5,0.1,5.3,0.1
			c1.8,0,3.5-0.1,5.3-0.2c1.7-0.1,3.5-0.2,5.3-0.2c4.2,0,7.7,0.6,10.6,1.7c3,1.1,5.3,2.6,7.2,4.6c1.9,2,3.3,4.5,4.2,7.4
			s1.3,6.1,1.3,9.8c0,4.7-0.8,8.7-2.4,12c-1.7,3.2-3.7,5.8-6.2,7.8c-2.5,2-5.3,3.4-8.3,4.2c-3.1,0.9-6,1.3-8.7,1.3
			c-1.6,0-3.2,0-4.7-0.1c-1.6-0.1-3.1-0.1-4.7-0.1c-1.6,0-3.2,0-4.7,0c-1.6,0-3.1,0.1-4.7,0.2c0.2-2.9,0.2-5.9,0.4-8.9
			c0.1-3,0.2-6.1,0.2-9.2V35.8H440.8z M446.6,48c0,5.1,0.2,10.1,0.4,15c1,0.2,2.4,0.4,4,0.6c1.7,0.2,3.5,0.2,5.3,0.2
			c2.6,0,5.2-0.3,7.8-0.9c2.6-0.6,5-1.8,7-3.5c2-1.7,3.7-4,5-7c1.3-2.9,2-6.8,2-11.4c0-4.1-0.5-7.5-1.5-10.1c-1-2.7-2.4-4.7-4.2-6.3
			c-1.7-1.5-3.9-2.6-6.4-3.2c-2.4-0.6-5.1-0.9-8.1-0.9c-2.1,0-4.1,0.1-6,0.2c-1.8,0.2-3.5,0.3-5,0.5c-0.2,2.3-0.2,4.6-0.3,7.1
			c-0.1,2.4-0.1,5-0.1,7.5L446.6,48L446.6,48z"/>
		<path class="st2" d="M495.5,59.5c0.6,0.9,1.4,1.7,2.4,2.4c0.9,0.7,2,1.3,3.2,1.7c1.3,0.5,2.6,0.7,4.1,0.7c1.6,0,3-0.2,4.2-0.8
			c1.3-0.6,2.3-1.3,3.2-2.2c0.9-0.9,1.6-2,2-3.2c0.5-1.3,0.7-2.6,0.7-4c0-2.2-0.6-3.9-1.7-5.2c-1.1-1.3-2.5-2.4-4.2-3.2
			c-1.7-0.9-3.5-1.7-5.3-2.4c-1.9-0.7-3.7-1.6-5.3-2.7c-1.7-1.1-3.1-2.4-4.2-4.1c-1.1-1.7-1.7-3.9-1.7-6.7c0-2,0.4-3.8,1.1-5.4
			s1.7-3.1,3.1-4.2c1.3-1.2,3-2.1,4.9-2.8c1.9-0.6,4-1,6.4-1c2.3,0,4.2,0.2,5.9,0.8s3.2,1.4,4.6,2.5c-0.4,0.8-0.8,1.7-1.1,2.5
			s-0.6,2-0.9,3.4h-0.9c-0.4-0.4-0.7-1.2-1.1-2s-0.9-1.5-1.7-2.1c-0.7-0.6-1.5-1.2-2.4-1.7c-0.9-0.5-2-0.7-3.4-0.7
			c-1.3,0-2.5,0.2-3.6,0.6c-1.1,0.4-2,1-2.9,1.8c-0.9,0.8-1.5,1.7-1.9,2.8c-0.5,1.1-0.7,2.3-0.7,3.5c0,2.2,0.6,3.9,1.7,5.3
			c1.1,1.3,2.5,2.4,4.2,3.2c1.7,0.9,3.5,1.7,5.3,2.4c1.9,0.7,3.7,1.5,5.3,2.5c1.7,1,3.1,2.3,4.2,3.9c1.1,1.6,1.7,3.6,1.7,6.2
			c0,2.2-0.4,4.2-1.2,6.1c-0.8,2-1.9,3.6-3.4,5c-1.5,1.4-3.3,2.5-5.4,3.3c-2.1,0.8-4.6,1.2-7.3,1.2c-2.9,0-5.3-0.4-7.1-1.2
			c-1.8-0.8-3.3-1.7-4.6-2.7c0.4-1.1,0.7-2,0.9-2.9c0.2-0.9,0.3-2,0.5-3.4h0.9C494.3,57.8,494.9,58.6,495.5,59.5z"/>
		<path class="st2" d="M565.9,26.6c-0.2-3-0.2-6.1-0.4-9.2c0.6,0.1,1.2,0.2,1.8,0.2c0.6,0.1,1.1,0.1,1.7,0.1s1.1,0,1.7-0.1
			c0.6-0.1,1.2-0.2,1.8-0.2c-0.2,3.1-0.2,6.1-0.4,9.2c-0.2,3-0.2,6.1-0.2,9.2V48c0,3.1,0.1,6.2,0.2,9.2c0.1,3,0.2,6,0.4,8.9
			c-1.1-0.1-2.3-0.2-3.5-0.2c-1.3,0-2.4,0.1-3.5,0.2c0.2-2.9,0.2-5.9,0.4-8.9c0.1-3,0.2-6.1,0.2-9.2v-6.4c-2.5-0.1-5-0.1-7.4-0.1
			c-2.4,0-4.9,0-7.4,0s-5,0-7.4,0s-4.9,0.1-7.4,0.1V48c0,3.1,0.1,6.2,0.2,9.2c0.1,3,0.2,6,0.4,8.9c-1.1-0.1-2.3-0.2-3.5-0.2
			c-1.2,0-2.4,0.1-3.5,0.2c0.2-2.9,0.2-5.9,0.4-8.9c0.1-3,0.2-6.1,0.2-9.2V35.8c0-3.1-0.1-6.1-0.2-9.2c-0.2-3-0.2-6.1-0.4-9.2
			c0.6,0.1,1.2,0.2,1.7,0.2s1.1,0.1,1.7,0.1c0.6,0,1.1,0,1.7-0.1c0.6-0.1,1.2-0.2,1.7-0.2c-0.2,3.1-0.2,6.1-0.4,9.2
			c-0.2,3-0.2,6.1-0.2,9.2v2.5c2.5,0.1,5,0.1,7.4,0.2s4.9,0.1,7.4,0.1s5,0,7.4-0.1c2.4-0.1,4.9-0.1,7.4-0.2v-2.5
			C566,32.7,566,29.6,565.9,26.6z"/>
		<path class="st2" d="M585.2,26.6c-0.2-3-0.2-6.1-0.4-9.2c0.6,0.1,1.2,0.2,1.7,0.2c0.6,0.1,1.1,0.1,1.7,0.1c0.6,0,1.1,0,1.7-0.1
			c0.6-0.1,1.2-0.2,1.7-0.2c-0.2,3.1-0.2,6.1-0.4,9.2c-0.2,3-0.2,6.1-0.2,9.2V48c0,3.1,0.1,6.2,0.2,9.2c0.1,3,0.2,6,0.4,8.9
			c-1.1-0.1-2.3-0.2-3.5-0.2s-2.4,0.1-3.5,0.2c0.2-2.9,0.2-5.9,0.4-8.9c0.1-3,0.2-6.1,0.2-9.2V35.8
			C585.5,32.7,585.4,29.6,585.2,26.6z"/>
		<path class="st2" d="M604.8,35.8c0-3.1-0.1-6.1-0.2-9.2c-0.2-3-0.2-6.1-0.4-9.2c1.3,0.1,2.8,0.2,4,0.2c1.3,0.1,2.7,0.1,4,0.1
			s2.8-0.1,4-0.2c1.3-0.1,2.7-0.2,4-0.2c2,0,3.9,0.2,5.7,0.6c1.8,0.4,3.4,1,4.7,1.9c1.3,0.9,2.4,2,3.2,3.5c0.8,1.4,1.2,3.2,1.2,5.3
			c0,2.3-0.5,4.2-1.5,5.8c-1,1.7-2.3,3-3.7,4c-1.5,1.1-3.1,1.9-4.7,2.5c-1.7,0.6-3.2,0.9-4.6,1.2c0.6,0.7,1.3,1.7,2.4,3
			c1,1.3,2.1,2.7,3.3,4.2c1.3,1.6,2.5,3.1,3.9,4.8c1.3,1.7,2.6,3.3,3.9,4.8c1.3,1.6,2.4,2.9,3.5,4.2c1.1,1.3,2,2.3,2.6,2.9
			c-0.7-0.1-1.4-0.2-2.1-0.2c-0.7,0-1.4,0-2.1,0c-0.6,0-1.3,0-2,0c-0.7,0-1.4,0.1-2,0.2c-0.7-1-1.8-2.5-3.2-4.5
			c-1.4-2-3.1-4.1-4.8-6.4c-1.7-2.3-3.5-4.5-5.3-6.8c-1.8-2.2-3.5-4.2-5-5.7h-2.7V48c0,3.1,0.1,6.2,0.2,9.2c0.1,3,0.2,6,0.4,8.9
			c-1.1-0.1-2.3-0.2-3.5-0.2c-1.2,0-2.4,0.1-3.5,0.2c0.2-2.9,0.2-5.9,0.4-8.9c0.1-3,0.2-6.1,0.2-9.2L604.8,35.8L604.8,35.8z
			 M610.6,39.8c0.6,0.2,1.4,0.2,2.1,0.3c0.8,0.1,1.7,0.1,2.6,0.1c1.5,0,3-0.2,4.6-0.5c1.6-0.3,3.1-0.9,4.3-1.7
			c1.3-0.8,2.4-2,3.3-3.3c0.9-1.4,1.3-3.1,1.3-5.3c0-1.8-0.3-3.4-1-4.6c-0.7-1.2-1.6-2.1-2.7-2.8c-1.1-0.7-2.3-1.2-3.5-1.4
			c-1.3-0.2-2.5-0.4-3.8-0.4c-1.7,0-3,0-4.1,0.1c-1.1,0.1-2,0.2-2.8,0.2c-0.1,2.6-0.2,5.2-0.3,7.7c-0.1,2.5-0.2,5.1-0.2,7.6
			L610.6,39.8L610.6,39.8z"/>
		<path class="st2" d="M647.6,26.5c-0.2-3-0.2-6.1-0.4-9c2.1,0.1,4.2,0.2,6.4,0.2c2.1,0.1,4.2,0.1,6.4,0.1c2.1,0,4.2,0,6.3-0.1
			s4.2-0.2,6.3-0.2c-0.2,0.7-0.2,1.4-0.2,2.1c0,0.7,0.1,1.4,0.2,2.1c-1.5-0.1-2.9-0.2-4.2-0.3c-1.3-0.1-2.6-0.2-3.9-0.3
			c-1.4-0.1-2.9-0.2-4.6-0.2c-1.7-0.1-3.6-0.1-6-0.1c-0.1,1.5-0.1,3-0.2,4.3c-0.1,1.3-0.1,2.9-0.1,4.6c0,1.8,0,3.6,0,5.3
			c0,1.7,0,3.1,0,3.9c2,0,3.9,0,5.6-0.1c1.7-0.1,3.1-0.1,4.6-0.2c1.3-0.1,2.6-0.2,3.8-0.2s2.3-0.2,3.3-0.2c-0.2,0.7-0.2,1.4-0.2,2.2
			c0,0.7,0.1,1.4,0.2,2.1c-1.3-0.2-2.7-0.2-4.2-0.4c-1.7-0.1-3.2-0.2-4.9-0.2s-3.1-0.1-4.6-0.1c-1.4,0-2.6,0-3.5,0
			c0,0.4,0,0.9,0,1.4c0,0.5,0,1.1,0,1.9v2.8v4.2c0,2.7,0,4.9,0,6.7c0,1.7,0.1,3.1,0.1,3.9c1.6,0,3.2,0,5,0c1.8,0,3.5,0,5.3-0.1
			c1.7-0.1,3.4-0.2,4.9-0.3c1.6-0.1,2.8-0.3,4-0.6c-0.1,0.3-0.2,0.7-0.2,1.1c0,0.4,0,0.8,0,1.1c0,0.8,0.1,1.3,0.2,1.8
			c-2.1-0.1-4.2-0.2-6.4-0.2c-2.1,0-4.2,0-6.4,0c-2.2,0-4.3,0-6.4,0s-4.2,0.1-6.4,0.2c0.2-3,0.2-6.1,0.4-9c0.1-3,0.2-6.1,0.2-9.2
			v-12C647.8,32.6,647.7,29.5,647.6,26.5z"/>
		<path class="st2" d="M201.1,109.2c0-4,0.6-7.5,2-10.7c1.3-3.1,3.1-5.8,5.4-7.9c2.4-2.2,5.1-3.9,8.4-5c3.3-1.1,6.8-1.7,10.7-1.7
			c3.9,0,7.5,0.6,10.8,1.7c3.3,1.2,6.1,2.8,8.4,5s4.2,4.8,5.4,7.9c1.3,3.1,2,6.7,2,10.7c0,4-0.6,7.5-2,10.7
			c-1.3,3.1-3.1,5.8-5.4,7.9c-2.4,2.2-5.1,3.8-8.4,4.9c-3.2,1-6.8,1.6-10.8,1.6c-3.9,0-7.5-0.6-10.7-1.6c-3.2-1.1-6.1-2.7-8.4-4.9
			s-4.2-4.8-5.4-7.9C201.7,116.8,201.1,113.3,201.1,109.2z M247.1,109.2c0-3.9-0.5-7.3-1.5-10.1c-1-2.8-2.4-5.2-4.2-7.1
			s-3.9-3.2-6.2-4.2c-2.4-0.9-5-1.3-7.8-1.3c-2.8,0-5.3,0.5-7.7,1.3c-2.4,0.9-4.5,2.3-6.2,4.2c-1.8,1.9-3.1,4.2-4.2,7.1
			s-1.5,6.2-1.5,10.1c0,3.9,0.5,7.3,1.5,10.1c1,2.8,2.4,5.2,4.2,7.1c1.8,1.9,3.9,3.2,6.2,4.2c2.4,0.9,5,1.3,7.7,1.3s5.3-0.5,7.8-1.3
			c2.4-0.9,4.5-2.3,6.2-4.2c1.8-1.9,3.1-4.2,4.2-7.1C246.7,116.5,247.1,113.1,247.1,109.2z"/>
		<path class="st2" d="M300.6,107.8c0-6.7,0-11.9-0.1-15.5s-0.2-6.1-0.4-7.5c0.6,0.1,1,0.2,1.5,0.2c0.5,0.1,0.9,0.1,1.4,0.1
			c0.6,0,1.3-0.1,2.1-0.4c-0.2,1.7-0.3,3.6-0.4,5.9c-0.2,2.3-0.2,4.7-0.4,7.4c-0.1,2.6-0.2,5.3-0.3,8.1c-0.1,2.8-0.2,5.4-0.2,8
			c-0.1,3.1-0.6,6-1.4,8.5c-0.9,2.5-2.2,4.6-3.9,6.4c-1.7,1.7-3.8,3.1-6.3,3.9s-5.3,1.3-8.5,1.3c-7.1,0-12.2-1.6-15.4-4.8
			c-3.2-3.2-4.8-8.3-4.8-15.3c0-2.2,0.1-4.2,0.2-5.9c0.1-1.7,0.2-3.5,0.2-5.3c0-3.9-0.1-7.5-0.2-10.5c-0.1-3.1-0.2-5.7-0.3-7.8
			c0.6,0.1,1.2,0.2,1.8,0.2c0.6,0.1,1.3,0.1,1.8,0.1c0.6,0,1,0,1.5-0.1s1-0.2,1.5-0.2c-0.1,1-0.2,2.4-0.3,4.1
			c-0.1,1.7-0.2,3.5-0.3,5.7c-0.1,2.1-0.2,4.4-0.2,6.8s-0.1,5-0.1,7.6c0,1.6,0,3.3,0.1,5c0.1,1.7,0.2,3.4,0.5,5
			c0.3,1.7,0.7,3.2,1.4,4.6c0.6,1.5,1.6,2.8,2.8,3.9c1.2,1.1,2.7,2,4.5,2.6c1.8,0.6,4,0.9,6.7,0.9c2.6,0,4.8-0.4,6.5-1.1
			c1.8-0.8,3.2-1.7,4.3-3c1.1-1.3,2-2.7,2.7-4.2c0.6-1.6,1.1-3.3,1.4-5c0.3-1.7,0.5-3.5,0.5-5.3
			C300.5,110.9,300.6,109.3,300.6,107.8z"/>
		<path class="st2" d="M328.1,88.5c-1.3,0-2.5,0-3.9,0c-1.3,0-2.7,0.1-4,0.2c-1.3,0.1-2.7,0.2-3.9,0.2c-1.3,0.1-2.4,0.2-3.4,0.4
			c0.2-0.9,0.3-1.6,0.3-2.3c0-0.6-0.2-1.3-0.3-2.2c3.1,0.1,6.1,0.2,9.1,0.2c3,0.1,6.1,0.1,9.1,0.1c3.1,0,6.1,0,9.1-0.1
			c3-0.1,6.1-0.2,9.1-0.2c-0.2,0.9-0.4,1.7-0.4,2.3c0,0.6,0.1,1.3,0.4,2.2c-1-0.2-2.1-0.2-3.4-0.4c-1.3-0.1-2.5-0.2-3.9-0.2
			c-1.3-0.1-2.7-0.1-4-0.2c-1.3,0-2.6,0-3.9,0c-0.2,4.9-0.2,9.7-0.2,14.6v12.2c0,3.1,0.1,6.2,0.2,9.2c0.1,3,0.2,6,0.4,8.9
			c-1.1-0.1-2.3-0.2-3.5-0.2c-1.3,0-2.4,0.1-3.5,0.2c0.2-2.9,0.2-5.9,0.4-8.9c0.1-3,0.2-6.1,0.2-9.2v-12.2
			C328.3,98.3,328.2,93.4,328.1,88.5z"/>
		<path class="st2" d="M357.5,103.1c0-3.1-0.1-6.1-0.2-9.2c-0.2-3-0.2-6.1-0.4-9.2c1.8,0.1,3.5,0.2,5.3,0.2c1.8,0.1,3.5,0.1,5.3,0.1
			s3.5-0.1,5.3-0.2c1.7-0.1,3.5-0.2,5.3-0.2c4.2,0,7.7,0.6,10.6,1.7c3,1.1,5.3,2.6,7.2,4.6c1.9,2,3.3,4.5,4.2,7.4
			c0.9,2.9,1.3,6.1,1.3,9.8c0,4.7-0.8,8.7-2.4,12c-1.7,3.2-3.7,5.8-6.2,7.8c-2.5,2-5.3,3.4-8.3,4.2c-3.1,0.9-6,1.3-8.7,1.3
			c-1.6,0-3.2,0-4.7-0.1c-1.6-0.1-3.1-0.1-4.7-0.1c-1.6,0-3.2,0-4.7,0c-1.6,0-3.1,0.1-4.7,0.2c0.2-2.9,0.2-5.9,0.4-8.9
			c0.1-3,0.2-6.1,0.2-9.2v-12.3H357.5z M363.3,115.3c0,5.1,0.2,10.1,0.4,15c1,0.2,2.4,0.4,4,0.6c1.7,0.2,3.5,0.2,5.3,0.2
			c2.6,0,5.2-0.3,7.8-0.9s5-1.7,7-3.5c2-1.7,3.7-4,5-7c1.3-2.9,2-6.8,2-11.4c0-4.1-0.5-7.5-1.5-10.1c-1-2.7-2.4-4.7-4.2-6.3
			c-1.7-1.6-3.9-2.6-6.4-3.2c-2.4-0.6-5.1-0.9-8.1-0.9c-2.1,0-4.1,0.1-6,0.2c-1.8,0.2-3.5,0.3-5,0.5c-0.2,2.3-0.2,4.6-0.3,7.1
			c-0.1,2.4-0.1,5-0.1,7.5L363.3,115.3L363.3,115.3z"/>
		<path class="st2" d="M408.3,109.2c0-4,0.6-7.5,2-10.7c1.3-3.1,3.1-5.8,5.4-7.9c2.4-2.2,5.1-3.9,8.4-5c3.2-1.1,6.8-1.7,10.7-1.7
			c3.9,0,7.5,0.6,10.8,1.7s6.1,2.8,8.4,5c2.4,2.2,4.2,4.8,5.4,7.9c1.3,3.1,2,6.7,2,10.7c0,4-0.6,7.5-2,10.7
			c-1.3,3.1-3.1,5.8-5.4,7.9c-2.4,2.2-5.1,3.8-8.4,4.9c-3.2,1-6.8,1.6-10.8,1.6c-3.9,0-7.5-0.6-10.7-1.6c-3.2-1.1-6.1-2.7-8.4-4.9
			c-2.4-2.2-4.2-4.8-5.4-7.9C409,116.8,408.3,113.3,408.3,109.2z M454.4,109.2c0-3.9-0.5-7.3-1.5-10.1c-1-2.8-2.4-5.2-4.2-7.1
			s-3.9-3.2-6.2-4.2c-2.4-0.9-5-1.3-7.8-1.3c-2.8,0-5.3,0.5-7.7,1.3c-2.4,0.9-4.5,2.3-6.2,4.2s-3.1,4.2-4.2,7.1s-1.5,6.2-1.5,10.1
			c0,3.9,0.5,7.3,1.5,10.1c1,2.8,2.4,5.2,4.2,7.1c1.8,1.9,3.9,3.2,6.2,4.2c2.4,0.9,5,1.3,7.7,1.3c2.8,0,5.3-0.5,7.8-1.3
			c2.4-0.9,4.5-2.3,6.2-4.2c1.7-1.9,3.1-4.2,4.2-7.1C453.9,116.5,454.4,113.1,454.4,109.2z"/>
		<path class="st2" d="M467.1,109.2c0-4,0.6-7.5,2-10.7c1.3-3.1,3.1-5.8,5.4-7.9c2.4-2.2,5.1-3.9,8.4-5c3.2-1.1,6.8-1.7,10.7-1.7
			c3.9,0,7.5,0.6,10.8,1.7c3.3,1.2,6.1,2.8,8.4,5c2.4,2.2,4.2,4.8,5.4,7.9c1.3,3.1,2,6.7,2,10.7c0,4-0.6,7.5-2,10.7
			c-1.3,3.1-3.1,5.8-5.4,7.9c-2.4,2.2-5.1,3.8-8.4,4.9c-3.2,1-6.8,1.6-10.8,1.6c-3.9,0-7.5-0.6-10.7-1.6c-3.2-1.1-6.1-2.7-8.4-4.9
			s-4.2-4.8-5.4-7.9C467.7,116.8,467.1,113.3,467.1,109.2z M513.1,109.2c0-3.9-0.5-7.3-1.5-10.1c-1-2.8-2.4-5.2-4.2-7.1
			c-1.8-1.9-3.9-3.2-6.2-4.2c-2.4-0.9-5-1.3-7.8-1.3c-2.8,0-5.3,0.5-7.7,1.3c-2.4,0.9-4.5,2.3-6.2,4.2c-1.7,1.9-3.1,4.2-4.2,7.1
			s-1.5,6.2-1.5,10.1c0,3.9,0.5,7.3,1.5,10.1c1,2.8,2.4,5.2,4.2,7.1c1.8,1.9,3.9,3.2,6.2,4.2c2.4,0.9,5,1.3,7.7,1.3s5.3-0.5,7.8-1.3
			c2.4-0.9,4.5-2.3,6.2-4.2c1.7-1.9,3.1-4.2,4.2-7.1C512.6,116.5,513.1,113.1,513.1,109.2z"/>
		<path class="st2" d="M529.6,103.1c0-3.1-0.1-6.1-0.2-9.2c-0.2-3-0.2-6.1-0.4-9.2c1.3,0.1,2.8,0.2,4,0.2c1.3,0.1,2.7,0.1,4,0.1
			s2.8-0.1,4-0.2c1.3-0.1,2.7-0.2,4-0.2c2,0,3.9,0.2,5.7,0.6c1.8,0.4,3.4,1,4.7,1.9c1.3,0.9,2.4,2,3.2,3.5c0.8,1.4,1.2,3.2,1.2,5.3
			c0,2.3-0.5,4.2-1.5,5.8c-1,1.7-2.3,3-3.7,4c-1.5,1.1-3.1,1.9-4.7,2.5c-1.7,0.6-3.2,0.9-4.6,1.2c0.6,0.7,1.3,1.7,2.4,3
			c1,1.3,2.1,2.7,3.3,4.2c1.3,1.6,2.5,3.1,3.9,4.8c1.3,1.7,2.6,3.3,3.9,4.8c1.3,1.6,2.4,2.9,3.5,4.2c1.1,1.3,2,2.3,2.6,2.9
			c-0.7-0.1-1.4-0.2-2.1-0.2c-0.7,0-1.4,0-2.1,0c-0.6,0-1.3,0-2,0c-0.7,0-1.4,0.1-2,0.2c-0.7-1-1.8-2.5-3.2-4.5
			c-1.4-2-3.1-4.1-4.8-6.4c-1.7-2.3-3.5-4.5-5.3-6.8c-1.8-2.2-3.5-4.2-5-5.7h-2.8v5.2c0,3.1,0.1,6.2,0.2,9.2s0.2,6,0.4,8.9
			c-1.1-0.1-2.3-0.2-3.5-0.2c-1.2,0-2.4,0.1-3.5,0.2c0.2-2.9,0.2-5.9,0.4-8.9c0.1-3,0.2-6.1,0.2-9.2V103.1z M535.5,107.1
			c0.6,0.2,1.4,0.2,2.1,0.3c0.8,0.1,1.7,0.1,2.6,0.1c1.5,0,3-0.2,4.6-0.5s3.1-0.9,4.3-1.7c1.3-0.8,2.4-2,3.3-3.3
			c0.9-1.4,1.3-3.1,1.3-5.3c0-1.8-0.3-3.4-1-4.6c-0.7-1.2-1.6-2.1-2.7-2.8s-2.3-1.2-3.5-1.4c-1.3-0.2-2.5-0.4-3.8-0.4
			c-1.7,0-3,0-4.1,0.1c-1.1,0.1-2,0.2-2.8,0.2c-0.1,2.6-0.2,5.2-0.3,7.7c-0.1,2.5-0.2,5.1-0.2,7.6L535.5,107.1L535.5,107.1z"/>
		<path class="st2" d="M572.6,126.8c0.6,0.9,1.4,1.7,2.4,2.4c0.9,0.7,2,1.3,3.2,1.7c1.3,0.5,2.6,0.7,4.1,0.7c1.6,0,3-0.2,4.2-0.8
			c1.3-0.6,2.3-1.3,3.2-2.2c0.9-0.9,1.6-2,2-3.2s0.7-2.6,0.7-4c0-2.2-0.6-3.9-1.7-5.2c-1.1-1.3-2.5-2.4-4.2-3.2
			c-1.7-0.9-3.5-1.7-5.3-2.4c-1.9-0.7-3.7-1.6-5.3-2.7c-1.7-1-3.1-2.4-4.2-4.1c-1.1-1.7-1.7-3.9-1.7-6.7c0-2,0.4-3.8,1.1-5.4
			c0.7-1.7,1.7-3.1,3.1-4.2c1.3-1.2,3-2.1,4.9-2.8c1.9-0.6,4-1,6.4-1c2.3,0,4.2,0.2,5.9,0.8c1.7,0.6,3.2,1.4,4.6,2.5
			c-0.4,0.8-0.8,1.7-1.1,2.5c-0.3,0.9-0.6,2-0.9,3.4h-0.9c-0.2-0.6-0.6-1.4-0.9-2.1c-0.4-0.8-0.9-1.5-1.7-2.1
			c-0.7-0.6-1.5-1.2-2.4-1.7c-0.9-0.5-2-0.7-3.4-0.7s-2.5,0.2-3.6,0.6c-1.1,0.4-2,1-2.9,1.8c-0.9,0.8-1.5,1.7-1.9,2.8
			c-0.5,1.1-0.7,2.3-0.7,3.5c0,2.2,0.6,3.9,1.7,5.3c1.1,1.3,2.5,2.4,4.2,3.2c1.7,0.9,3.5,1.7,5.3,2.4c1.9,0.7,3.7,1.5,5.3,2.5
			c1.7,1,3.1,2.3,4.2,3.9s1.7,3.6,1.7,6.2c0,2.2-0.4,4.2-1.2,6.1c-0.8,2-1.9,3.6-3.4,5c-1.5,1.4-3.3,2.5-5.4,3.3s-4.6,1.2-7.3,1.2
			c-2.9,0-5.3-0.4-7.1-1.2c-1.8-0.8-3.3-1.7-4.6-2.7c0.4-1.1,0.7-2,0.9-2.9c0.2-0.9,0.3-2,0.5-3.4h0.9
			C571.5,125.1,571.9,125.9,572.6,126.8z"/>
	</g>
</g>
<g>
	<g>
		<path class="st2" d="M730.1,135.3c-0.7,0.2-1.4,0.3-2.6,0.3c-2.3,0-5-1.2-5-4.5c0-3,2.1-4.6,5-4.6c0.9,0,1.8,0.2,2.6,0.5l-0.2,1.9
			c-0.8-0.4-1.5-0.6-2.3-0.6c-1.7,0-2.7,1.2-2.7,2.8c0,1.7,1.2,2.8,2.9,2.8c0.8,0,1.5-0.2,2.2-0.5L730.1,135.3z"/>
		<path class="st2" d="M732.4,126.7h2.3v3.3h2.8v-3.3h2.3v8.7h-2.3v-3.7h-2.8v3.7h-2.3V126.7z"/>
		<path class="st2" d="M745.3,126.7h2.9l3.4,8.7h-2.6l-0.7-1.9H745l-0.7,1.9H742L745.3,126.7z M746.7,128.5L746.7,128.5l-1.2,3.4
			h2.2L746.7,128.5z"/>
		<path class="st2" d="M753.7,126.7h3l3,5.9h0l0-5.9h2.1v8.7h-2.9l-3.1-6h0l0.1,6h-2.1V126.7z"/>
		<path class="st2" d="M772.7,135.2c-1.5,0.4-2.6,0.4-3.4,0.4c-2.3,0-5-1.2-5-4.5c0-3.3,2.3-4.6,5.5-4.6c0.6,0,1.8,0.1,2.6,0.4
			l-0.2,1.9c-0.7-0.4-1.6-0.6-2.1-0.6c-1.9,0-3.4,0.8-3.4,2.8c0,1.7,1.2,2.8,2.9,2.8c0.3,0,0.6,0,0.8-0.1V132h-1.4v-1.7h3.6V135.2z"
			/>
		<path class="st2" d="M775.7,126.7h2.3v8.7h-2.3V126.7z"/>
		<path class="st2" d="M781.1,126.7h3l3,5.9h0l0-5.9h2.1v8.7h-2.9l-3.1-6h0l0.1,6h-2.1V126.7z"/>
		<path class="st2" d="M800.1,135.2c-1.5,0.4-2.6,0.4-3.4,0.4c-2.3,0-5-1.2-5-4.5c0-3.3,2.3-4.6,5.5-4.6c0.6,0,1.8,0.1,2.6,0.4
			l-0.2,1.9c-0.7-0.4-1.6-0.6-2.1-0.6c-1.9,0-3.4,0.8-3.4,2.8c0,1.7,1.2,2.8,2.9,2.8c0.3,0,0.6,0,0.8-0.1V132h-1.4v-1.7h3.6V135.2z"
			/>
		<path class="st2" d="M808,126.7h2.3c1.8,0,3.3,0.6,3.3,2.6c0,1.9-1.5,2.6-3.1,2.6h-1.2v3.5H808V126.7z M809.2,130.9h1.2
			c0.8,0,1.8-0.4,1.8-1.5c0-1.1-1.2-1.5-1.9-1.5h-1.1V130.9z"/>
		<path class="st2" d="M816.2,126.7h1.3v7.6h3.7v1.1h-4.9V126.7z"/>
		<path class="st2" d="M826.5,126.7h1.3l3.7,8.7h-1.4l-0.9-2.2H825l-0.9,2.2h-1.3L826.5,126.7z M827.1,127.9l-1.7,4.3h3.5
			L827.1,127.9z"/>
		<path class="st2" d="M840.1,128.2c-0.6-0.3-1.2-0.5-1.8-0.5c-2,0-3.4,1.5-3.4,3.4c0,2.1,1.5,3.4,3.3,3.4c0.6,0,1.5-0.2,1.9-0.4
			l0.1,1.2c-0.7,0.3-1.5,0.3-2,0.3c-2.8,0-4.6-1.8-4.6-4.6c0-2.7,2-4.5,4.6-4.5c0.7,0,1.3,0.1,2,0.4L840.1,128.2z"/>
		<path class="st2" d="M843,126.7h4.9v1.1h-3.6v2.6h3.3v1.1h-3.3v2.9h3.6v1.1H843V126.7z"/>
		<path class="st2" d="M855.1,128c-0.6-0.2-1-0.4-1.6-0.4c-0.7,0-1.5,0.3-1.5,1.2c0,1.7,3.8,1.3,3.8,4.2c0,1.9-1.4,2.6-3.2,2.6
			c-0.6,0-1.2-0.2-1.8-0.4l0.1-1.2c0.4,0.2,1.2,0.4,1.8,0.4c0.7,0,1.7-0.4,1.7-1.4c0-2-3.8-1.4-3.8-4.1c0-1.6,1.2-2.4,2.8-2.4
			c0.6,0,1.3,0.1,1.9,0.3L855.1,128z"/>
		<path class="st2" d="M728.9,146.8c-0.6-0.3-1.2-0.5-1.8-0.5c-2,0-3.4,1.5-3.4,3.4c0,2.1,1.5,3.4,3.3,3.4c0.6,0,1.5-0.2,1.9-0.4
			l0.1,1.2c-0.7,0.3-1.5,0.3-2,0.3c-2.8,0-4.6-1.8-4.6-4.6c0-2.7,2-4.5,4.6-4.5c0.7,0,1.3,0.1,2,0.4L728.9,146.8z"/>
		<path class="st2" d="M732.9,145.3h1.3v3.7h4.2v-3.7h1.3v8.7h-1.3v-4h-4.2v4h-1.3V145.3z"/>
		<path class="st2" d="M746.9,145.3h1.3l3.7,8.7h-1.4l-0.9-2.2h-4.3l-0.9,2.2h-1.3L746.9,145.3z M747.5,146.5l-1.7,4.3h3.5
			L747.5,146.5z"/>
		<path class="st2" d="M755.4,145.3h1.7l3.9,7h0v-7h1.3v8.7h-1.6l-4-7.2h0v7.2h-1.3V145.3z"/>
		<path class="st2" d="M773.3,146.9c-0.6-0.4-1.3-0.6-2.4-0.6c-2,0-3.4,1.5-3.4,3.4c0,2.1,1.5,3.4,3.3,3.4c0.9,0,1.1-0.1,1.4-0.1
			v-2.7h-1.8v-1h3.1v4.5c-0.5,0.2-1.3,0.4-2.7,0.4c-2.8,0-4.6-1.8-4.6-4.6c0-2.7,2-4.5,4.6-4.5c1.3,0,1.8,0.2,2.6,0.4L773.3,146.9z"
			/>
		<path class="st2" d="M778,145.3h1.3v8.7H778V145.3z"/>
		<path class="st2" d="M783.7,145.3h1.7l3.9,7h0v-7h1.3v8.7h-1.6l-4-7.2h0v7.2h-1.3V145.3z"/>
		<path class="st2" d="M801.6,146.9c-0.6-0.4-1.3-0.6-2.4-0.6c-2,0-3.4,1.5-3.4,3.4c0,2.1,1.5,3.4,3.3,3.4c0.9,0,1.1-0.1,1.4-0.1
			v-2.7h-1.8v-1h3.1v4.5c-0.5,0.2-1.3,0.4-2.7,0.4c-2.8,0-4.6-1.8-4.6-4.6c0-2.7,2-4.5,4.6-4.5c1.3,0,1.8,0.2,2.6,0.4L801.6,146.9z"
			/>
		<path class="st2" d="M811.7,145.3h2.3v7h3.6v1.7h-5.9V145.3z"/>
		<path class="st2" d="M821,145.3h2.3v8.7H821V145.3z"/>
		<path class="st2" d="M826.6,145.3h2.5l1.9,6.9h0l2-6.9h2.4l-3,8.7h-2.9L826.6,145.3z"/>
		<path class="st2" d="M838.5,145.3h6.2v1.7h-3.8v1.8h3.6v1.7h-3.6v2h4v1.7h-6.3V145.3z"/>
		<path class="st2" d="M848.5,151.9c0.6,0.3,1.4,0.6,2.4,0.6c0.7,0,1.4-0.1,1.4-0.8c0-1.6-4.1-0.6-4.1-3.8c0-2.1,2.1-2.7,3.8-2.7
			c0.8,0,1.7,0.1,2.3,0.3l-0.2,1.8c-0.6-0.3-1.3-0.4-1.9-0.4c-0.6,0-1.6,0.1-1.6,0.8c0,1.4,4.1,0.5,4.1,3.6c0,2.3-1.9,2.9-3.8,2.9
			c-0.8,0-1.8-0.1-2.6-0.4L848.5,151.9z"/>
		<g>
			<rect x="722.4" y="139.8" class="st2" width="132" height="1"/>
			<path class="st2" d="M788.4,140.4"/>
		</g>
	</g>
	<g>
		<path class="st2" d="M851.2,99.6c1.6,3.3,1.8,8.8-0.2,12c-2.5,4.9-7.5,7.6-13.1,7.5h-94.3l11.8-21.2l69.5,0.2l-34.6-60.3l12.2-21
			C802.6,16.8,835.4,72.2,851.2,99.6z"/>
		<g>
			<path class="st2" d="M740.4,113c0.6,1.2,0.5,2.4-0.2,3.7c-1.9,3.4-6.3,3.3-12.8-0.3c-6.5-3.7-8.7-7.4-6.8-10.8
				c1.6-2.8,5-3.3,8.9-1.1c0.1,0,0.1,0.1,0.2,0.1l-1.6,2.8c-2.5-1.3-3.7-1.3-4.4-0.1c-0.9,1.6,0.8,3.3,5.5,5.9
				c4.8,2.7,7.1,3.2,8,1.5c0.6-1,0.3-2.2-1.5-3.2l-2.5-1.4l-0.9,1.7l-2.5-1.4l2.5-4.4l10.1,5.8l-0.8,1.4L740.4,113z"/>
			<path class="st2" d="M747,103.8c-7.4-3.6-8.4-3.8-9.2-2.4c-0.8,1.3-0.9,1.5-0.8,1.5l8,4.5l-1.8,3.1l-18.8-10.7l2.2-3.9
				c0.9-1.7,1.7-2.9,3.3-3.5c1.4-0.5,3.5-0.3,5.5,0.9c2.3,1.3,3.3,2.9,3.4,5.1c0,0,1-0.8,1.9-0.9c1.8-0.1,8,3.3,8,3.3L747,103.8z
				 M734.4,100.8c1.1-1.9,1-2.9-1-4.1c-1.8-1-2.9-0.7-3.9,1.1c-0.1,0.2-0.3,0.5-0.3,0.6l4.9,2.8C734.1,101.2,734.2,101,734.4,100.8z
				"/>
			<path class="st2" d="M791.3,25.9c-7.4-3.6-8.4-3.8-9.2-2.4c-0.8,1.3-0.9,1.5-0.8,1.5l8,4.5l-1.8,3.1l-18.8-10.7l2.2-3.9
				c0.9-1.7,1.7-2.9,3.3-3.5c1.4-0.5,3.5-0.3,5.5,0.9c2.3,1.3,3.3,2.9,3.4,5.1c0,0,1-0.8,1.9-0.9c1.8-0.1,8,3.3,8,3.3L791.3,25.9z
				 M778.7,22.9c1.1-1.9,1-2.9-1-4.1c-1.8-1-2.9-0.7-3.9,1.1c-0.1,0.2-0.3,0.5-0.3,0.6l4.9,2.8C778.4,23.2,778.5,23,778.7,22.9z"/>
			<path class="st2" d="M758.2,85.1c-1.8,3.2-4.7,3.5-8.9,1.1l-12.9-7.3l1.8-3.1l13.5,7.7c1.9,1.1,3,1.2,3.7,0c0.7-1.3,0-2.2-2-3.3
				l-13.3-7.6l1.8-3.1l12.9,7.3C758.8,79.3,760,81.9,758.2,85.1z"/>
			<path class="st2" d="M742.4,68.3l1.6-2.9l12.7,2l-10.5-5.9l1.5-2.7l18.8,10.7l-1.5,2.6l-14.4-2.7l12.1,6.8l-1.6,2.7L742.4,68.3z"
				/>
			<path class="st2" d="M748.5,57.5l2.1-3.6c1.2-2,2.3-3.2,4.3-3.4c2.4-0.3,5.1,0.7,8.5,2.7c3.4,2,5.7,3.8,6.7,6
				c0.9,1.9,0.4,3.4-0.7,5.5l-2.1,3.6L748.5,57.5z M766.1,62.5c0.5-0.9,0.8-1.6,0.4-2.3c-0.6-1.1-2.2-2.4-4.9-3.9
				c-2.7-1.5-4.6-2.3-5.9-2.2c-0.7,0.1-1.2,0.6-1.7,1.5l-0.4,0.7l12.1,6.9L766.1,62.5z"/>
			<path class="st2" d="M753.9,48l1.7-2.9l10.9,4.3l-8.9-7.7l1.5-2.6l11.1,3.8l-9.2-7.3l1.6-2.8l17.1,13.6l-1.4,2.4l-10.9-3.2
				l8.4,7.7l-1.4,2.4L753.9,48z"/>
			<path class="st2" d="M765,27.7c1.9-3.4,6.2-3.3,12.7,0.4c6.5,3.7,8.8,7.4,6.9,10.7c-1.9,3.4-6.3,3.3-12.7-0.4
				C765.3,34.7,763,31.1,765,27.7z M781.1,36.9c0.8-1.4-0.9-3.2-5.3-5.7c-4.3-2.5-6.8-3-7.6-1.6c-0.8,1.4,0.9,3.2,5.3,5.7
				C777.9,37.7,780.3,38.3,781.1,36.9z"/>
			<path class="st2" d="M732.7,84.5c1.9-3.4,6.2-3.3,12.7,0.4c6.5,3.7,8.8,7.4,6.9,10.7c-1.9,3.4-6.3,3.3-12.7-0.4
				C733,91.6,730.8,87.9,732.7,84.5z M748.9,93.7c0.8-1.4-0.9-3.2-5.2-5.7c-4.3-2.5-6.8-3-7.6-1.6c-0.8,1.4,0.9,3.2,5.3,5.7
				C745.6,94.6,748,95.1,748.9,93.7z"/>
			<path class="st2" d="M774.8,11.3l1.8-3.1l7,4L778.3,5l1.8-3.2l6,8.7l13,1.6l-1.9,3.3l-9.4-1.3l0.6,0.9l6.8,3.9l-1.8,3.1
				L774.8,11.3z"/>
		</g>
	</g>
</g>
</svg>
